<?xml version="1.0" encoding="iso-8859-1"?>
<!-- Generator: Adobe Illustrator 19.0.0, SVG Export Plug-In . SVG Version: 6.00 Build 0)  -->
<svg version="1.1" id="Layer_1" xmlns="http://www.w3.org/2000/svg" xmlns:xlink="http://www.w3.org/1999/xlink" x="0px" y="0px"
	 viewBox="0 0 512 512" style="enable-background:new 0 0 512 512;" xml:space="preserve">
<g>
	<rect x="352.36" y="51.922" style="fill:#8B8B8B;" width="82.474" height="33.395"/>
	<rect x="143.531" y="51.922" style="fill:#8B8B8B;" width="82.474" height="33.395"/>
</g>
<path style="fill:#D7D7D7;" d="M479.426,129.904c-0.037,0-0.073,0-0.112,0c-33.796-0.063-61.242-27.611-61.178-61.409
	c0.065-33.759,27.549-61.178,61.292-61.178c0.039,0,0.078,0,0.117,0c11.394,0.021,22.617,3.309,32.456,9.508L494.201,45.08
	c-4.585-2.889-9.538-4.358-14.72-4.367c-0.017,0-0.036,0-0.053,0c-15.359,0-27.868,12.48-27.898,27.847
	c-0.028,15.383,12.463,27.921,27.847,27.95c0.018,0,0.035,0,0.052,0c5.164,0,10.103-1.45,14.684-4.312l17.694,28.322
	C501.976,126.66,490.782,129.904,479.426,129.904z"/>
<path style="fill:#B0B0B0;" d="M494.113,92.197c-4.581,2.862-9.521,4.312-14.684,4.312c-0.018,0-0.035,0-0.052,0
	c-15.383-0.029-27.875-12.568-27.847-27.95l-33.395-0.062c-0.063,33.797,27.383,61.344,61.178,61.409c0.038,0,0.075,0,0.112,0
	c11.356,0,22.552-3.245,32.381-9.385L494.113,92.197z"/>
<g>
	<rect x="101.487" y="303.615" style="fill:#8B8B8B;" width="33.395" height="82.474"/>
	<rect x="101.487" y="94.786" style="fill:#8B8B8B;" width="33.395" height="82.474"/>
</g>
<path style="fill:#F0C838;" d="M166.798,320.311H69.566V160.555h97.232V320.311z"/>
<path style="fill:#E79C25;" d="M166.798,320.311h-48.616V160.555h48.616V320.311z"/>
<path style="fill:#F0C838;" d="M369.06,117.235H209.303V20.004H369.06V117.235z"/>
<path style="fill:#E79C25;" d="M369.06,117.235h-79.878V20.004h79.878V117.235z"/>
<path style="fill:#F0C838;" d="M236.364,504.683H0v-16.697c0-65.166,53.017-118.182,118.182-118.182s118.182,53.017,118.182,118.182
	V504.683z"/>
<path style="fill:#E79C25;" d="M236.364,504.683H118.182c0,0,0-86.022,0-134.88c65.166,0,118.182,53.017,118.182,118.182V504.683z"
	/>
<path style="fill:#92E5EA;" d="M118.182,110.83c-23.275,0-42.211-18.936-42.211-42.211s18.936-42.211,42.211-42.211
	s42.211,18.936,42.211,42.211S141.457,110.83,118.182,110.83z"/>
<path style="fill:#79BBBC;" d="M118.182,110.83V26.408c23.275,0,42.211,18.936,42.211,42.211S141.457,110.83,118.182,110.83z"/>
<g>
</g>
<g>
</g>
<g>
</g>
<g>
</g>
<g>
</g>
<g>
</g>
<g>
</g>
<g>
</g>
<g>
</g>
<g>
</g>
<g>
</g>
<g>
</g>
<g>
</g>
<g>
</g>
<g>
</g>
</svg>
